<?xml version="1.0" standalone="no"?>
<!DOCTYPE svg PUBLIC "-//W3C//DTD SVG 20010904//EN"
 "http://www.w3.org/TR/2001/REC-SVG-20010904/DTD/svg10.dtd">
<svg version="1.0" xmlns="http://www.w3.org/2000/svg"
 width="700.000000pt" height="700.000000pt" viewBox="0 0 700.000000 700.000000"
 preserveAspectRatio="xMidYMid meet">
<metadata>
Created by potrace 1.11, written by Peter Selinger 2001-2013
</metadata>
<g transform="translate(0.000000,700.000000) scale(0.100000,-0.100000)"
fill="#000000" stroke="none">
<path d="M4350 6318 c-102 -26 -333 -86 -515 -132 -181 -47 -438 -112 -570
-146 -132 -34 -247 -63 -255 -65 -8 -2 -51 -13 -95 -25 -44 -12 -87 -23 -95
-25 -8 -2 -166 -42 -350 -90 -184 -47 -396 -101 -470 -120 -74 -18 -216 -55
-315 -80 -99 -26 -187 -48 -195 -50 -8 -2 -87 -22 -175 -45 -88 -23 -205 -53
-260 -66 -55 -14 -104 -29 -108 -33 -8 -8 14 -74 133 -396 27 -71 69 -187 94
-257 25 -70 68 -187 95 -260 27 -73 86 -234 131 -358 45 -124 97 -265 115
-315 46 -125 209 -570 322 -880 52 -143 98 -269 103 -280 5 -11 23 -60 40
-110 17 -49 38 -108 47 -130 8 -22 48 -132 89 -245 41 -113 78 -214 83 -225 9
-21 30 -78 106 -290 25 -71 50 -139 55 -150 5 -11 46 -121 90 -245 44 -124 85
-234 89 -245 5 -11 30 -78 56 -150 26 -71 50 -134 55 -138 4 -5 52 3 106 18
55 15 106 28 114 30 15 3 382 97 685 175 147 38 419 108 765 196 96 25 281 72
410 105 129 34 242 62 250 64 8 2 42 11 75 20 33 9 69 18 80 21 84 17 155 40
155 51 0 7 -7 52 -14 100 -8 49 -17 108 -20 133 -4 25 -8 55 -10 67 -3 11 -8
43 -12 70 -3 26 -8 57 -11 68 -2 11 -6 38 -8 60 -3 22 -7 49 -9 60 -2 11 -6
38 -9 60 -6 39 -34 218 -62 400 -8 50 -17 110 -20 135 -4 25 -13 86 -20 135
-8 50 -17 108 -20 130 -3 22 -10 65 -15 95 -6 30 -12 71 -14 90 -3 19 -11 78
-20 130 -8 52 -17 111 -20 130 -4 31 -13 95 -31 215 -3 22 -12 78 -20 125 -8
47 -17 105 -20 130 -3 25 -10 70 -15 100 -5 30 -12 71 -14 90 -3 19 -9 64 -15
100 -6 36 -13 83 -16 105 -3 22 -7 49 -10 60 -2 11 -7 43 -10 70 -3 28 -10 73
-15 100 -5 28 -11 70 -14 95 -5 40 -12 84 -46 295 -5 33 -19 123 -31 200 -11
77 -22 149 -24 160 -1 11 -6 43 -9 70 -4 28 -11 73 -16 100 -8 44 -32 201 -46
305 -3 19 -7 46 -9 60 -2 14 -9 54 -14 90 -6 36 -13 83 -16 105 -3 22 -10 65
-15 95 -5 30 -12 73 -15 95 -5 38 -14 97 -35 229 -5 32 -10 59 -12 60 -2 1
-86 -20 -188 -46z m-206 -618 c2 -19 8 -55 11 -80 3 -25 13 -88 21 -140 9 -52
17 -106 19 -120 4 -25 14 -96 35 -230 7 -41 15 -97 19 -125 l6 -50 -50 -36
c-205 -148 -488 -280 -696 -324 -99 -22 -262 -26 -348 -10 -75 15 -185 55
-241 89 -225 137 -501 135 -787 -6 -98 -48 -111 -60 -95 -91 7 -12 89 -233
183 -492 184 -506 214 -588 279 -765 23 -63 66 -182 96 -265 30 -82 61 -166
69 -185 8 -19 35 -93 61 -165 25 -71 66 -184 90 -250 319 -870 381 -1040 380
-1042 -6 -8 -232 -61 -238 -55 -4 4 -52 133 -108 287 -56 154 -105 289 -110
300 -5 11 -36 97 -70 190 -34 94 -104 285 -155 425 -208 568 -516 1409 -662
1810 -85 234 -169 461 -185 505 -46 125 -78 218 -75 221 2 3 186 50 807 209
135 35 371 95 525 135 154 39 287 73 295 75 8 2 50 13 92 25 43 11 87 23 98
25 12 2 30 7 40 10 10 3 27 7 37 10 10 2 81 20 158 40 77 20 151 38 165 41 14
3 48 12 75 20 106 31 240 61 247 55 3 -3 9 -22 12 -41z"/>
</g>
</svg>
